<!-- Generator: Adobe Illustrator 19.1.0, SVG Export Plug-In  -->
<svg version="1.1"
	 xmlns="http://www.w3.org/2000/svg" xmlns:xlink="http://www.w3.org/1999/xlink" xmlns:a="http://ns.adobe.com/AdobeSVGViewerExtensions/3.0/"
	 x="0px" y="0px" width="42.4px" height="42.4px" viewBox="0 0 42.4 42.4" style="enable-background:new 0 0 42.4 42.4;"
	 xml:space="preserve">
<style type="text/css">
	.st0{fill:#282218;}
</style>
<defs>
</defs>
<path class="st0" d="M21.2,42.4c11.7,0,21.2-9.5,21.2-21.2C42.4,9.5,32.9,0,21.2,0C9.5,0,0,9.5,0,21.2C0,32.9,9.5,42.4,21.2,42.4z
	 M31.1,10.7c0.6-0.6,1.5-0.6,2.1,0l3.5,3.5c0.6,0.6,0.6,1.5,0,2.1L35,18.1l-1-1l-3.7-3.7l-1-1L31.1,10.7z M29.4,14.4l3.7,3.7
	l0.9,0.9L23.4,29.8h-6.3l0.1-0.5l1.2-5.9l10-10L29.4,14.4z M8.1,26.5V9.9c0-1.1,0.9-2,2-2h8.6h6c1.1,0,2,0.9,2,2v3.4l-3.2,3.2H10.7
	v1.3h11.4l-2,2h-9.4v1.3h8.1l-1.6,1.6l-0.1,0.4h-6.4v1.3h6.1l-0.4,2h-5.8v1.3h5.5L16,29l-0.2,0.8h-5.1v1.3h4.8H24l2.7-2.7v4
	c0,1.1-0.9,2-2,2H16h-6c-1.1,0-2-0.9-2-2V26.5z"/>
</svg>
