<!-- Generator: Adobe Illustrator 19.0.1, SVG Export Plug-In  -->
<svg version="1.1"
	 xmlns="http://www.w3.org/2000/svg" xmlns:xlink="http://www.w3.org/1999/xlink" xmlns:a="http://ns.adobe.com/AdobeSVGViewerExtensions/3.0/"
	 x="0px" y="0px" width="40.5px" height="9.9px" viewBox="0 0 40.5 9.9" enable-background="new 0 0 40.5 9.9" xml:space="preserve"
	>
<defs>
</defs>
<path fill="#DB3C3F" d="M18.2,9.9h3.4c0.3,0,0.5-0.1,0.7-0.3l3.8-3.9h14.3V4.2H26.2l-3.9-4C22.1,0.1,21.9,0,21.6,0h-3.4l4.3,4.4
	c0.2,0.2,0.4,0.3,0.7,0.3h1v0.5h-1c-0.3,0-0.5,0.1-0.7,0.3L18.2,9.9z M15.9,3.9c0.2,0.2,0.4,0.3,0.7,0.3H20l-3.8-3.9
	C16,0.1,15.8,0,15.5,0h-3.4L15.9,3.9z M9.9,3.9c0.2,0.2,0.4,0.3,0.7,0.3h3.4l-3.8-3.9C10,0.1,9.7,0,9.5,0H6.1L9.9,3.9z M3.8,3.9
	C4,4.1,4.2,4.2,4.5,4.2h3.4L4.1,0.3C3.9,0.1,3.7,0,3.4,0H0L3.8,3.9z M12.1,9.9h3.4c0.3,0,0.5-0.1,0.7-0.3L20,5.8h-3.4
	c-0.3,0-0.5,0.1-0.7,0.3L12.1,9.9z M6.1,9.9h3.4c0.3,0,0.5-0.1,0.7-0.3l3.8-3.9h-3.4c-0.3,0-0.5,0.1-0.7,0.3L6.1,9.9z M3.8,6.1
	C4,5.9,4.2,5.8,4.5,5.8h3.4L4.1,9.7C3.9,9.8,3.7,9.9,3.4,9.9H0L3.8,6.1z"/>
</svg>
