<!-- Generator: Adobe Illustrator 19.0.1, SVG Export Plug-In  -->
<svg version="1.1"
	 xmlns="http://www.w3.org/2000/svg" xmlns:xlink="http://www.w3.org/1999/xlink" xmlns:a="http://ns.adobe.com/AdobeSVGViewerExtensions/3.0/"
	 x="0px" y="0px" width="27.7px" height="27.7px" viewBox="0 0 27.7 27.7" enable-background="new 0 0 27.7 27.7"
	 xml:space="preserve">
<defs>
</defs>
<g>
	<path fill="#282218" d="M27.7,1.5v24.7c0,0.8-0.7,1.5-1.5,1.5h-7.1V17h3.6l0.5-4.2h-4.1v-2.7c0-1.2,0.3-2,2.1-2l2.2,0V4.4
		c-0.4-0.1-1.7-0.2-3.2-0.2c-3.2,0-5.4,1.9-5.4,5.5v3.1h-3.6V17h3.6v10.7H1.5c-0.8,0-1.5-0.7-1.5-1.5V1.5C0,0.7,0.7,0,1.5,0h24.7
		C27.1,0,27.7,0.7,27.7,1.5z"/>
</g>
</svg>
