<!-- Generator: Adobe Illustrator 19.0.1, SVG Export Plug-In  -->
<svg version="1.1"
	 xmlns="http://www.w3.org/2000/svg" xmlns:xlink="http://www.w3.org/1999/xlink" xmlns:a="http://ns.adobe.com/AdobeSVGViewerExtensions/3.0/"
	 x="0px" y="0px" width="28.3px" height="28.3px" viewBox="0 0 28.3 28.3" enable-background="new 0 0 28.3 28.3"
	 xml:space="preserve">
<defs>
</defs>
<g>
	<path fill="#282218" d="M28.3,23c0,2.9-2.4,5.3-5.3,5.3H5.3C2.4,28.3,0,25.9,0,23V5.3C0,2.4,2.4,0,5.3,0H23c2.9,0,5.3,2.4,5.3,5.3
		V23z M6.5,4.8c-1.5,0-2.4,1-2.4,2.2c0,1.2,0.9,2.2,2.4,2.2h0c1.5,0,2.4-1,2.4-2.2C8.9,5.7,8,4.8,6.5,4.8z M8.6,23.7V10.9H4.4v12.8
		H8.6z M23.9,23.7v-7.3c0-3.9-2.1-5.8-4.9-5.8c-2.3,0-3.3,1.3-3.9,2.2h0v-1.9H11c0,0,0.1,1.2,0,12.8h4.3v-7.2c0-0.4,0-0.8,0.1-1
		c0.3-0.8,1-1.5,2.2-1.5c1.5,0,2.1,1.2,2.1,2.9v6.8H23.9z"/>
</g>
</svg>
