<!-- Generator: Adobe Illustrator 19.0.1, SVG Export Plug-In  -->
<svg version="1.1"
	 xmlns="http://www.w3.org/2000/svg" xmlns:xlink="http://www.w3.org/1999/xlink" xmlns:a="http://ns.adobe.com/AdobeSVGViewerExtensions/3.0/"
	 x="0px" y="0px" width="166.4px" height="83.2px" viewBox="0 0 166.4 83.2" enable-background="new 0 0 166.4 83.2"
	 xml:space="preserve">
<defs>
</defs>
<g>
	<path fill="#292A2A" d="M97,32.8v-6.3c0-2.2,0.9-3.1,3.1-3.1h1c0.8,0,1.4,0.1,1.9,0.4c-0.5-0.6-1.3-0.8-2.5-0.8h-1
		c-2.2,0-3.2,0.9-3.2,3.2v6.3c0,2.2,0.7,3.1,2.2,4.2C97.6,35.6,97,34.6,97,32.8"/>
	<rect x="7.6" y="17.3" fill="#292A2A" width="0.5" height="21.4"/>
	<path fill="#292A2A" d="M97.6,61.8c-0.5-0.5-0.7-1.3-0.7-2.3V50l-0.5,0v9.1C96.4,60.5,96.7,61.4,97.6,61.8"/>
	<polygon fill="#292A2A" points="38.3,53.4 38.9,53.4 41.8,33.1 41.5,31 	"/>
	<polygon fill="#292A2A" points="75.3,48.1 75.3,46.2 68.7,17.3 68.2,17.3 	"/>
	<polygon fill="#292A2A" points="136.2,17.3 135.7,17.3 135.7,23.5 125.7,23.5 125.7,38.8 126.2,38.8 126.2,23.9 136.2,23.9 	"/>
	<polygon fill="#292A2A" points="135.9,39.2 135.3,39.2 135.3,45.3 125.7,45.3 125.7,61.7 126.2,61.7 126.2,45.7 135.9,45.7 	"/>
	<path fill="#292A2A" d="M110.7,26.3V33l-6.3,0v0.4l6.9,0v-6.8c0-3.8-1.1-6.5-3.4-8.1C109.7,20.2,110.7,22.8,110.7,26.3"/>
	<path fill="#292A2A" d="M94.6,42.2c-0.2-0.1-0.3-0.2-0.5-0.3c0.3,0.3,0.6,0.5,1,0.8l7,5.1c0,0,0,0,0,0c-0.2-0.1-0.4-0.3-0.6-0.5
		L94.6,42.2z"/>
	<polygon fill="#292A2A" points="158.6,48.1 158.6,46.2 152,17.3 151.6,17.3 	"/>
	<polygon fill="#292A2A" points="15.7,45.4 7.6,45.4 7.6,68.2 1.2,68.2 1.2,68.6 8.2,68.6 8.2,45.8 15.7,45.8 	"/>
	<polygon fill="#292A2A" points="135.8,68.2 119.2,68.2 119.2,68.6 136.4,68.6 136.4,62.1 135.8,62.1 	"/>
	<polygon fill="#292A2A" points="165.3,17.3 165.3,68.2 157.5,68.2 157.6,68.6 165.9,68.6 165.9,17.3 	"/>
	<polygon fill="#292A2A" points="82,68.2 74.1,68.2 74.2,68.6 82.5,68.6 82.5,17.3 82,17.3 	"/>
	<polygon fill="#292A2A" points="149.2,34.1 149.2,68.2 143,68.2 143,68.6 149.7,68.6 149.7,36.4 	"/>
	<path fill="#292A2A" d="M106.7,42.3c3,2.5,4.1,5,4.1,9.1v7.3c0,6.6-3.3,9.9-9.9,9.9h-1.6c-2.7,0-4.8-0.6-6.4-1.7
		c1.6,1.4,3.9,2.1,6.9,2.1h1.6c6.6,0,9.9-3.3,9.9-9.9v-7.3C111.3,47.5,110.1,44.9,106.7,42.3"/>
	<polygon fill="#292A2A" points="45.6,59.9 37.4,59.9 36.3,68.2 30.1,68.2 30,68.6 36.8,68.6 38,60.3 45.6,60.3 	"/>
	<polygon fill="#292A2A" points="22.7,68.2 16.2,68.2 16.2,68.6 23.2,68.6 23.2,17.3 22.7,17.3 	"/>
	<polygon fill="#292A2A" points="65.8,34.1 65.8,68.2 59.7,68.2 59.7,68.6 66.4,68.6 66.4,36.4 	"/>
	<polygon fill="#292A2A" points="45.9,17.2 53.7,68.2 47.2,68.2 47.3,68.6 54.3,68.6 46.3,17.2 	"/>
	<polygon fill="#292A2A" points="64.5,0.1 64.5,1.1 62.5,1.1 62.5,4.5 64.4,4.5 64.4,5.5 62.5,5.5 62.5,9 64.5,9 64.5,10.1
		61.3,10.1 61.3,0.1 	"/>
	<path fill="#292A2A" d="M70.7,6.9v1.5c0,1.2-0.6,1.9-1.9,1.9h-0.3c-1.2,0-1.8-0.6-1.8-1.8V6.3h1.1v2.1c0,0.5,0.2,0.8,0.8,0.8h0.2
		c0.5,0,0.8-0.2,0.8-0.8V6.9c0-0.5-0.2-0.7-0.5-1l-1.4-1c-0.7-0.5-1-1-1-1.9V1.9c0-1.2,0.6-1.9,1.9-1.9h0.3c1.2,0,1.8,0.6,1.8,1.8
		v1.8h-1.1V1.8c0-0.5-0.2-0.8-0.8-0.8h-0.2c-0.5,0-0.8,0.2-0.8,0.8V3c0,0.5,0.2,0.7,0.5,1l1.4,1C70.5,5.5,70.7,6,70.7,6.9"/>
	<polygon fill="#292A2A" points="73.9,10.1 73.9,1.1 72.4,1.1 72.4,0.1 76.6,0.1 76.6,1.1 75.1,1.1 75.1,10.1 	"/>
	<rect x="77.7" y="8.4" fill="#292A2A" width="1.1" height="1.7"/>
	<path fill="#292A2A" d="M85.7,10.1h-1.1V1.9h-0.9V1c0.6-0.1,0.9-0.2,1.3-0.7L85.1,0h0.6V10.1z"/>
	<path fill="#292A2A" d="M91,1.8C91,1.3,90.8,1,90.3,1H90c-0.5,0-0.7,0.2-0.7,0.8v2.5c0,0.6,0.3,0.8,0.8,0.8c0.3,0,0.7-0.1,1-0.2
		V1.8z M91,8.4V5.8c-0.3,0.2-0.7,0.3-1.2,0.3h0c-1,0-1.6-0.7-1.6-1.7V1.9C88.2,0.6,88.8,0,90,0h0.3c1.2,0,1.9,0.6,1.9,1.9v6.5
		c0,1.2-0.6,1.9-1.9,1.9H90c-1.3,0-1.8-0.5-1.8-1.8V7.1h1.1v1.3c0,0.5,0.2,0.8,0.7,0.8h0.3C90.8,9.2,91,8.9,91,8.4"/>
	<path fill="#292A2A" d="M98.4,8.3c0,1.2-0.6,1.9-1.8,1.9h-0.3c-1.2,0-1.8-0.6-1.8-1.8V6.6h1.1v1.8c0,0.5,0.2,0.8,0.7,0.8h0.2
		c0.5,0,0.7-0.2,0.7-0.8V5.7c0-0.5-0.2-0.8-0.7-0.8c-0.4,0-0.7,0.1-1.1,0.6h-1V0.1h3.7v1.1h-2.7l0,3.1c0.3-0.3,0.7-0.5,1.3-0.5
		c0.9,0,1.5,0.6,1.5,1.6V8.3z"/>
	<path fill="#292A2A" d="M103.5,1.8c0-0.5-0.2-0.8-0.7-0.8h-0.3c-0.5,0-0.7,0.2-0.7,0.8v2.5c0,0.6,0.3,0.8,0.8,0.8
		c0.3,0,0.7-0.1,1-0.2V1.8z M103.5,8.4V5.8c-0.3,0.2-0.7,0.3-1.2,0.3h0c-1,0-1.6-0.7-1.6-1.7V1.9c0-1.2,0.6-1.9,1.9-1.9h0.3
		c1.2,0,1.9,0.6,1.9,1.9v6.5c0,1.2-0.6,1.9-1.9,1.9h-0.3c-1.3,0-1.8-0.5-1.8-1.8V7.1h1.1v1.3c0,0.5,0.2,0.8,0.7,0.8h0.3
		C103.3,9.2,103.5,8.9,103.5,8.4"/>
	<path fill="#292929" d="M16.4,79.6h1.9l-0.9-2.9h0L16.4,79.6z M13.4,82.1L14,82l2.5-7.1h1.7l2.5,7.1l0.6,0.1v1h-2.8v-1L19,82
		l-0.4-1.1H16L15.6,82l0.6,0.1v1h-2.8V82.1z"/>
	<path fill="#292929" d="M31,82.1c-0.3,0.3-0.7,0.5-1.2,0.7c-0.5,0.2-1.2,0.3-1.9,0.3c-1.1,0-2-0.4-2.7-1.1c-0.7-0.7-1-1.7-1-2.9
		v-0.3c0-1.2,0.3-2.2,1-3c0.7-0.8,1.6-1.2,2.7-1.2c0.6,0,1.2,0.1,1.8,0.3c0.5,0.2,1,0.5,1.3,0.8v1.6h-1.2l-0.2-1.1
		c-0.1-0.1-0.3-0.2-0.6-0.3C28.6,76.1,28.4,76,28,76c-0.7,0-1.3,0.3-1.7,0.8c-0.4,0.5-0.6,1.2-0.6,2.1v0.3c0,0.8,0.2,1.5,0.6,2
		c0.4,0.5,1,0.7,1.7,0.7c0.3,0,0.6,0,0.8-0.1c0.2-0.1,0.4-0.1,0.5-0.2v-1.4l-1.2-0.1V79H31V82.1z"/>
	<path fill="#292929" d="M37.1,78.5h1.1c0.5,0,0.8-0.1,1-0.3c0.2-0.2,0.3-0.5,0.3-0.8c0-0.4-0.1-0.7-0.3-0.9c-0.2-0.2-0.6-0.3-1-0.3
		h-1.2V78.5z M38.3,74.9c0.9,0,1.7,0.2,2.2,0.6c0.5,0.4,0.8,1,0.8,1.8c0,0.4-0.1,0.8-0.3,1.1c-0.2,0.3-0.5,0.6-1,0.7
		c0.5,0.1,0.8,0.4,1,0.7c0.2,0.3,0.3,0.7,0.3,1.2v0.4c0,0.2,0,0.3,0.1,0.4c0.1,0.1,0.2,0.2,0.4,0.2l0.2,0v1h-0.8
		c-0.5,0-0.9-0.1-1.1-0.4c-0.2-0.3-0.3-0.7-0.3-1.1V81c0-0.4-0.1-0.7-0.3-0.9c-0.2-0.2-0.5-0.3-0.9-0.4h-1.3v2.2l0.9,0.2v1h-3.4v-1
		l0.9-0.2V76l-0.9-0.2v-1H38.3z"/>
	<polygon fill="#292929" points="45.3,75.9 45.3,74.9 48.7,74.9 48.7,75.9 47.8,76 47.8,81.9 48.7,82.1 48.7,83.1 45.3,83.1
		45.3,82.1 46.1,81.9 46.1,76 	"/>
	<rect x="52.5" y="78.9" fill="#292929" width="3.2" height="1.3"/>
	<path fill="#292929" d="M61.9,78.8h1.4c0.5,0,0.8-0.1,1-0.4c0.2-0.3,0.4-0.6,0.4-1c0-0.4-0.1-0.7-0.4-1c-0.2-0.3-0.6-0.4-1-0.4
		h-1.4V78.8z M63.3,74.9c0.9,0,1.7,0.2,2.2,0.7c0.5,0.5,0.8,1.1,0.8,1.9c0,0.8-0.3,1.4-0.8,1.9c-0.5,0.5-1.3,0.7-2.2,0.7h-1.4v1.8
		l0.9,0.2v1h-3.4v-1l0.9-0.2V76l-0.9-0.2v-1H63.3z"/>
	<polygon fill="#292929" points="69.6,83.1 69.6,82.1 70.5,81.9 70.5,76 69.6,75.9 69.6,74.9 73,74.9 73,75.9 72.2,76 72.2,81.8
		74.5,81.8 74.6,80.8 75.8,80.8 75.8,83.1 	"/>
	<path fill="#292929" d="M82.1,79.6h1.9L83,76.8h0L82.1,79.6z M79.1,82.1l0.6-0.1l2.5-7.1h1.7l2.5,7.1l0.6,0.1v1h-2.8v-1l0.6-0.1
		l-0.4-1.1h-2.7L81.3,82l0.6,0.1v1h-2.8V82.1z"/>
	<path fill="#292929" d="M96.6,77.6h-1.2l-0.2-1.1c-0.2-0.2-0.4-0.3-0.6-0.4c-0.2-0.1-0.5-0.1-0.9-0.1c-0.7,0-1.3,0.3-1.6,0.8
		c-0.4,0.5-0.6,1.2-0.6,2v0.3c0,0.8,0.2,1.5,0.6,2c0.4,0.5,0.9,0.8,1.6,0.8c0.3,0,0.6,0,0.9-0.1c0.3-0.1,0.5-0.2,0.6-0.4l0.2-1.1
		h1.2v1.6c-0.3,0.4-0.8,0.7-1.3,0.9c-0.5,0.2-1.1,0.3-1.7,0.3c-1.1,0-2-0.4-2.7-1.1c-0.7-0.8-1.1-1.7-1.1-2.9v-0.3
		c0-1.2,0.3-2.2,1-2.9c0.7-0.8,1.6-1.1,2.7-1.1c0.6,0,1.2,0.1,1.7,0.3c0.5,0.2,0.9,0.5,1.3,0.9V77.6z"/>
	<polygon fill="#292929" points="105.4,79.5 102.6,79.5 102.6,81.8 105.3,81.8 105.4,80.8 106.6,80.8 106.6,83.1 100.1,83.1
		100.1,82.1 101,81.9 101,76 100.1,75.9 100.1,74.9 106.6,74.9 106.6,77.1 105.3,77.1 105.3,76.1 102.6,76.1 102.6,78.2 105.4,78.2
			"/>
	<polygon fill="#292929" points="118.2,77 118.1,77 115.9,83.1 114.8,83.1 112.7,77 112.6,77 112.8,80.6 112.8,81.9 113.7,82.1
		113.7,83.1 110.3,83.1 110.3,82.1 111.1,81.9 111.1,76 110.3,75.9 110.3,74.9 113.3,74.9 115.4,80.9 115.4,80.9 117.5,74.9
		120.5,74.9 120.5,75.9 119.7,76 119.7,81.9 120.5,82.1 120.5,83.1 117.1,83.1 117.1,82.1 118,81.9 118,80.6 	"/>
	<polygon fill="#292929" points="129.2,79.5 126.4,79.5 126.4,81.8 129.1,81.8 129.1,80.8 130.4,80.8 130.4,83.1 123.9,83.1
		123.9,82.1 124.8,81.9 124.8,76 123.9,75.9 123.9,74.9 130.4,74.9 130.4,77.1 129.1,77.1 129,76.1 126.4,76.1 126.4,78.2
		129.2,78.2 	"/>
	<polygon fill="#292929" points="142.4,74.9 142.4,75.9 141.5,76 141.5,83.1 139.9,83.1 136.6,77.5 136.5,77.6 136.5,81.9
		137.4,82.1 137.4,83.1 134,83.1 134,82.1 134.9,81.9 134.9,76 134,75.9 134,74.9 136.5,74.9 139.9,80.4 139.9,80.4 139.9,76
		139,75.9 139,74.9 	"/>
	<polygon fill="#292929" points="152.9,74.9 152.9,77 151.7,77 151.6,76.1 150.1,76.1 150.1,81.9 151,82.1 151,83.1 147.6,83.1
		147.6,82.1 148.4,81.9 148.4,76.1 146.9,76.1 146.9,77 145.6,77 145.6,74.9 	"/>
	<path fill="#DD3839" d="M158.3,16.2h5.4v50.1h-7.2l-9-39.1v39.1h-5.4V16.2h7.9l8.3,36.3V16.2z M134.1,16.2v5.3h-10v16.6h9.7v5.2
		h-9.7V61h10.2v5.3h-15.9V16.2H134.1z M109.2,50.1v7.3c0,6.2-3.1,9.3-9.3,9.3h-1.6c-6.1,0-9.2-3.1-9.2-9.2v-8.6l5.6,0v8.8
		c0,2.6,1.2,3.8,3.8,3.8h1.1c2.6,0,3.8-1.2,3.8-3.8v-7.5c0-2.5-0.9-3.6-2.5-4.8l-7-5.1c-3.7-2.6-4.8-5.2-4.8-9.3v-6
		c0-6.2,3.1-9.3,9.3-9.3h1.4c6.1,0,9.2,3.1,9.2,9.2v6.1l-5.6,0v-6.3c0-2.6-1.2-3.8-3.8-3.8h-1c-2.6,0-3.8,1.2-3.8,3.8V31
		c0,2.5,0.9,3.6,2.6,4.8l6.9,5C108.1,43.5,109.2,45.8,109.2,50.1 M75,16.2h5.4v50.1h-7.2l-9-39.1v39.1h-5.4V16.2h7.9L75,52.5V16.2z
		 M36.6,52.8l3.9-27.7l3.9,27.7H36.6z M44.3,16.1H37l-7.7,50.2h5.5l1.1-8.4h9.2l1.2,8.4H52L44.3,16.1z M15.4,38V16.2h5.7v50.1h-5.7
		V43.4H6.1v22.9H0.3V16.2h5.7V38H15.4z"/>
	<path fill="#292A2A" d="M32.2,10h3.3c0.3,0,0.5-0.1,0.7-0.3l3.7-3.8h13.8V4.5H39.9l-3.7-3.8c-0.2-0.2-0.4-0.3-0.7-0.3h-3.3l4.2,4.3
		C36.6,4.9,36.8,5,37.1,5h1v0.5h-1c-0.3,0-0.5,0.1-0.7,0.3L32.2,10z M30,4.2c0.2,0.2,0.4,0.3,0.7,0.3h3.3l-3.7-3.8
		c-0.2-0.2-0.4-0.3-0.7-0.3h-3.3L30,4.2z M24.2,4.2c0.2,0.2,0.4,0.3,0.7,0.3h3.3l-3.7-3.8c-0.2-0.2-0.4-0.3-0.7-0.3h-3.3L24.2,4.2z
		 M18.3,4.2c0.2,0.2,0.4,0.3,0.7,0.3h3.3l-3.7-3.8c-0.2-0.2-0.4-0.3-0.7-0.3h-3.3L18.3,4.2z M26.3,10h3.3c0.2,0,0.5-0.1,0.7-0.3
		L33.9,6h-3.3c-0.2,0-0.5,0.1-0.7,0.3L26.3,10z M20.5,10h3.3c0.2,0,0.5-0.1,0.7-0.3L28.1,6h-3.3c-0.3,0-0.5,0.1-0.7,0.3L20.5,10z
		 M18.3,6.3C18.5,6.1,18.7,6,19,6h3.3l-3.7,3.7c-0.2,0.2-0.4,0.3-0.7,0.3h-3.3L18.3,6.3z"/>
	<path fill="#292A2A" d="M129.8,5.5c-0.2-0.2-0.4-0.3-0.7-0.3h-1V4.8h1c0.2,0,0.5-0.1,0.7-0.3l4.2-4.3h-3.3c-0.3,0-0.5,0.1-0.7,0.3
		l-3.7,3.8h-13.8v1.4h13.8l3.7,3.8c0.2,0.2,0.4,0.3,0.7,0.3h3.3L129.8,5.5z M139.9,0.2h-3.3c-0.3,0-0.5,0.1-0.7,0.3l-3.7,3.7h3.3
		c0.3,0,0.5-0.1,0.7-0.3L139.9,0.2z M145.7,0.2h-3.3c-0.2,0-0.5,0.1-0.7,0.3l-3.7,3.7h3.3c0.2,0,0.5-0.1,0.7-0.3L145.7,0.2z
		 M151.6,0.2h-3.3c-0.2,0-0.5,0.1-0.7,0.3L144,4.2h3.3c0.2,0,0.5-0.1,0.7-0.3L151.6,0.2z M136.2,6c-0.2-0.2-0.4-0.3-0.7-0.3h-3.3
		l3.7,3.7c0.2,0.2,0.4,0.3,0.7,0.3h3.3L136.2,6z M142,6c-0.2-0.2-0.4-0.3-0.7-0.3h-3.3l3.7,3.7c0.2,0.2,0.4,0.3,0.7,0.3h3.3L142,6z
		 M151.6,9.8h-3.3c-0.2,0-0.5-0.1-0.7-0.3L144,5.8h3.3c0.2,0,0.5,0.1,0.7,0.3L151.6,9.8z"/>
	<rect y="71.3" fill="#292929" width="166.4" height="0.7"/>
	<rect y="13.3" fill="#292A2A" width="166.4" height="0.7"/>
</g>
</svg>
