<!-- Generator: Adobe Illustrator 19.1.0, SVG Export Plug-In  -->
<svg version="1.1"
	 xmlns="http://www.w3.org/2000/svg" xmlns:xlink="http://www.w3.org/1999/xlink" xmlns:a="http://ns.adobe.com/AdobeSVGViewerExtensions/3.0/"
	 x="0px" y="0px" width="41.6px" height="41.6px" viewBox="0 0 41.6 41.6" style="enable-background:new 0 0 41.6 41.6;"
	 xml:space="preserve">
<style type="text/css">
	.st0{fill:#FFFFFF;}
	.st1{fill:#282218;}
</style>
<defs>
</defs>
<g>
	<path class="st0" d="M31.5,10.4c-0.2,0-0.5,0.1-0.7,0.2c-5.2,3.4-8.4,8.3-9.9,11l-2.7-3.6c-0.3-0.3-0.6-0.5-1-0.5
		c-0.3,0-0.6,0.1-0.8,0.3c-0.6,0.4-0.7,1.3-0.2,1.8l4,5.2c0.2,0.3,0.6,0.5,1,0.5c0.1,0,0.1,0,0.2,0c0.5-0.1,0.9-0.3,1-0.8
		c0-0.1,3.3-7.5,9.9-11.8c0.6-0.4,0.8-1.2,0.4-1.8C32.4,10.6,31.9,10.4,31.5,10.4z"/>
	<path class="st0" d="M27.3,19.1v8.9h-13v-13H24c0.8-0.9,1.6-1.7,2.5-2.6H14.3c-1.4,0-2.6,1.2-2.6,2.6v13c0,1.4,1.2,2.6,2.6,2.6h13
		c1.4,0,2.6-1.2,2.6-2.6V16.3C28.9,17.2,28,18.1,27.3,19.1z"/>
	<path class="st1" d="M20.8,0C9.3,0,0,9.3,0,20.8c0,11.5,9.3,20.8,20.8,20.8s20.8-9.3,20.8-20.8C41.6,9.3,32.3,0,20.8,0z M29.9,27.9
		c0,1.4-1.2,2.6-2.6,2.6h-13c-1.4,0-2.6-1.2-2.6-2.6v-13c0-1.4,1.2-2.6,2.6-2.6h12.2c-0.9,0.9-1.8,1.7-2.5,2.6h-9.7v13h13v-8.9
		c0.8-0.9,1.6-1.9,2.6-2.8V27.9z M32.2,12.8c-6.6,4.3-9.9,11.7-9.9,11.8c-0.2,0.4-0.6,0.7-1,0.8c-0.1,0-0.1,0-0.2,0
		c-0.4,0-0.8-0.2-1-0.5l-4-5.2c-0.4-0.6-0.3-1.4,0.2-1.8c0.2-0.2,0.5-0.3,0.8-0.3c0.4,0,0.8,0.2,1,0.5l2.7,3.6
		c1.5-2.7,4.8-7.7,9.9-11c0.2-0.1,0.5-0.2,0.7-0.2c0.4,0,0.8,0.2,1.1,0.6C33,11.6,32.8,12.4,32.2,12.8z"/>
</g>
</svg>
