<!-- Generator: Adobe Illustrator 19.0.1, SVG Export Plug-In  -->
<svg version="1.1"
	 xmlns="http://www.w3.org/2000/svg" xmlns:xlink="http://www.w3.org/1999/xlink" xmlns:a="http://ns.adobe.com/AdobeSVGViewerExtensions/3.0/"
	 x="0px" y="0px" width="28.4px" height="28.4px" viewBox="0 0 28.4 28.4" enable-background="new 0 0 28.4 28.4"
	 xml:space="preserve">
<defs>
</defs>
<g>
	<path fill="#282218" d="M28.4,23.1c0,2.9-2.4,5.3-5.3,5.3H5.3c-2.9,0-5.3-2.4-5.3-5.3V5.3C0,2.4,2.4,0,5.3,0h17.8
		c2.9,0,5.3,2.4,5.3,5.3V23.1z M21.5,9.6c0.8-0.5,1.4-1.3,1.7-2.2c-0.8,0.4-1.6,0.8-2.5,0.9C20,7.6,19,7.1,17.9,7.1
		C15.7,7.1,14,8.9,14,11c0,0.3,0,0.6,0.1,0.9c-3.2-0.2-6.1-1.7-8-4.1c-0.3,0.6-0.5,1.3-0.5,2c0,1.4,0.6,2.5,1.7,3.2
		c-0.6,0-1.3-0.2-1.9-0.5c0,0,0,0,0,0c0,1.9,1.4,3.5,3.2,3.8c-0.3,0.1-0.6,0.1-0.9,0.1c-0.2,0-0.5,0-0.7-0.1
		c0.5,1.5,1.9,2.7,3.6,2.7c-1.3,1-3,1.7-4.8,1.7c-0.3,0-0.6,0-0.9-0.1c1.7,1.1,3.8,1.7,6,1.7c7.1,0,11.1-5.9,11.1-11.1
		c0-0.2,0-0.3,0-0.5c0.8-0.5,1.4-1.2,1.9-2C23,9.2,22.3,9.4,21.5,9.6z"/>
</g>
</svg>
